<svg id="svg" version="1.1" xmlns="http://www.w3.org/2000/svg" xmlns:xlink="http://www.w3.org/1999/xlink" width="400" height="400" viewBox="0, 0, 400,400"><g id="svgg"><path id="path0" d="M93.867 235.467 C 93.720 235.613,93.600 256.673,93.600 282.267 L 93.600 328.800 164.000 328.800 L 234.400 328.800 234.400 282.000 L 234.400 235.200 164.267 235.200 C 125.693 235.200,94.013 235.320,93.867 235.467 " stroke="none" fill="#fcce3a" fill-rule="evenodd"></path><path id="path1" d="M77.000 71.471 C 68.003 73.471,62.586 76.195,57.437 81.310 C 42.241 96.404,43.830 121.353,60.800 134.140 C 74.940 144.795,94.461 143.515,106.702 131.131 C 110.800 126.986,114.891 120.249,115.769 116.200 C 116.937 110.813,117.199 109.019,117.199 106.400 C 117.201 91.311,105.536 75.554,92.200 72.634 C 86.820 71.455,84.920 71.207,81.600 71.247 C 79.510 71.272,77.440 71.373,77.000 71.471 M23.200 282.036 L 23.200 376.002 99.500 375.901 L 175.800 375.800 175.903 352.503 L 176.006 329.205 205.303 329.103 L 234.600 329.000 234.600 282.000 L 234.600 235.000 205.300 234.897 L 176.000 234.795 176.000 212.030 C 176.000 199.510,175.892 188.984,175.760 188.639 C 175.543 188.074,168.123 188.016,99.360 188.042 L 23.200 188.070 23.200 282.036 M234.400 282.000 L 234.400 328.800 164.000 328.800 L 93.600 328.800 93.600 282.267 C 93.600 256.673,93.720 235.613,93.867 235.467 C 94.013 235.320,125.693 235.200,164.267 235.200 L 234.400 235.200 234.400 282.000 " stroke="none" fill="#545c63" fill-rule="evenodd"></path><path id="path2" d="M71.392 24.352 C 71.177 24.560,70.010 24.824,68.800 24.939 C 64.589 25.341,63.068 25.611,62.536 26.053 C 62.241 26.298,62.000 26.395,62.000 26.268 C 62.000 26.142,61.200 26.279,60.221 26.574 C 59.243 26.868,58.347 27.014,58.231 26.897 C 58.115 26.781,57.773 26.890,57.473 27.139 C 57.173 27.389,55.863 27.939,54.563 28.361 C 53.264 28.783,51.525 29.418,50.700 29.770 C 49.875 30.122,49.197 30.273,49.194 30.105 C 49.191 29.937,49.056 29.980,48.894 30.200 C 48.732 30.420,46.980 31.403,45.000 32.385 C 43.020 33.367,41.310 34.267,41.200 34.385 C 40.839 34.773,38.615 36.045,37.900 36.271 C 37.515 36.393,37.200 36.652,37.200 36.847 C 37.200 37.041,36.958 37.200,36.662 37.200 C 36.366 37.200,35.798 37.560,35.400 38.000 C 35.002 38.440,34.423 38.800,34.114 38.800 C 33.806 38.800,33.664 38.980,33.800 39.200 C 33.936 39.420,33.812 39.600,33.524 39.600 C 33.000 39.601,32.513 39.972,28.400 43.505 C 25.312 46.158,19.193 52.332,17.783 54.218 C 17.132 55.088,16.285 56.148,15.900 56.575 C 15.515 57.002,15.200 57.565,15.200 57.826 C 15.200 58.088,14.906 58.546,14.546 58.845 C 13.968 59.325,12.886 60.855,11.326 63.400 C 11.056 63.840,10.071 65.730,9.137 67.600 C 8.204 69.470,7.296 71.060,7.120 71.133 C 6.944 71.207,6.800 71.601,6.800 72.010 C 6.800 72.418,6.620 72.864,6.400 73.000 C 6.180 73.136,6.000 73.597,6.000 74.024 C 6.000 74.451,5.820 74.800,5.600 74.800 C 5.380 74.800,5.200 75.340,5.200 76.000 C 5.200 76.660,5.020 77.200,4.800 77.200 C 4.580 77.200,4.400 77.549,4.400 77.976 C 4.400 78.403,4.220 78.864,4.000 79.000 C 3.780 79.136,3.600 79.599,3.600 80.029 C 3.600 80.459,3.438 81.123,3.239 81.505 C 3.040 81.887,2.668 83.010,2.412 84.000 C 2.156 84.990,1.778 86.353,1.573 87.028 C 1.368 87.704,1.200 88.703,1.200 89.248 C 1.200 89.794,1.001 90.439,0.759 90.681 C 0.512 90.928,0.380 92.004,0.459 93.124 C 0.536 94.224,0.461 95.039,0.292 94.934 C 0.123 94.829,0.002 99.696,0.025 105.749 C 0.055 113.731,0.194 116.808,0.533 116.946 C 0.804 117.057,0.823 117.150,0.579 117.168 C 0.106 117.204,0.408 121.053,0.952 121.927 C 1.132 122.216,1.280 123.072,1.280 123.828 C 1.280 124.584,1.442 125.302,1.640 125.425 C 1.838 125.547,2.000 126.179,2.000 126.829 C 2.000 127.479,2.158 128.323,2.351 128.705 C 2.887 129.767,3.600 132.176,3.600 132.928 C 3.600 133.298,3.747 133.600,3.928 133.600 C 4.108 133.600,4.500 134.500,4.800 135.600 C 5.100 136.700,5.492 137.600,5.672 137.600 C 5.853 137.600,6.000 137.949,6.000 138.376 C 6.000 138.803,6.180 139.264,6.400 139.400 C 6.620 139.536,6.800 139.997,6.800 140.424 C 6.800 140.851,6.980 141.200,7.200 141.200 C 7.420 141.200,7.600 141.453,7.600 141.762 C 7.600 142.543,9.271 145.600,9.698 145.600 C 9.890 145.600,9.945 145.765,9.820 145.968 C 9.695 146.170,9.864 146.607,10.196 146.939 C 10.528 147.271,10.800 147.811,10.800 148.138 C 10.800 148.465,10.935 148.793,11.100 148.867 C 11.265 148.940,11.748 149.630,12.173 150.400 C 12.872 151.666,15.873 155.909,16.417 156.400 C 16.539 156.510,17.077 157.230,17.614 158.000 C 18.150 158.770,19.312 160.136,20.195 161.035 C 21.078 161.934,22.266 163.194,22.835 163.835 C 24.476 165.682,30.032 170.587,30.644 170.729 C 30.950 170.800,31.200 171.001,31.200 171.175 C 31.200 171.349,31.965 172.011,32.900 172.646 C 33.835 173.281,34.949 174.115,35.375 174.500 C 35.802 174.885,36.387 175.200,36.675 175.200 C 36.964 175.200,37.200 175.380,37.200 175.600 C 37.200 175.820,37.436 176.000,37.725 176.000 C 38.013 176.000,38.636 176.360,39.108 176.800 C 39.580 177.240,40.244 177.600,40.583 177.600 C 40.922 177.600,41.200 177.780,41.200 178.000 C 41.200 178.220,41.470 178.400,41.800 178.400 C 42.130 178.400,42.400 178.580,42.400 178.800 C 42.400 179.020,42.715 179.204,43.100 179.209 C 43.485 179.214,44.250 179.570,44.800 180.000 C 45.350 180.430,46.008 180.786,46.262 180.791 C 46.516 180.796,47.506 181.186,48.462 181.657 C 49.418 182.128,50.650 182.692,51.200 182.910 C 51.750 183.129,52.650 183.484,53.200 183.700 C 53.750 183.916,54.513 184.252,54.895 184.447 C 55.277 184.641,55.941 184.800,56.371 184.800 C 56.801 184.800,57.264 184.980,57.400 185.200 C 57.536 185.420,58.166 185.600,58.800 185.600 C 59.434 185.600,60.071 185.791,60.215 186.024 C 60.359 186.257,60.884 186.394,61.383 186.328 C 61.881 186.263,62.539 186.412,62.844 186.660 C 63.865 187.486,66.904 187.689,81.000 187.873 C 95.464 188.060,95.911 188.028,102.600 186.321 C 108.685 184.769,112.097 183.514,117.738 180.753 C 118.584 180.339,119.539 180.000,119.861 180.000 C 120.184 180.000,120.336 179.820,120.200 179.600 C 120.064 179.380,120.278 179.196,120.676 179.191 C 121.074 179.186,121.850 178.830,122.400 178.400 C 122.950 177.970,123.625 177.614,123.900 177.609 C 124.175 177.604,124.400 177.420,124.400 177.200 C 124.400 176.980,124.636 176.800,124.925 176.800 C 125.213 176.800,125.836 176.440,126.308 176.000 C 126.780 175.560,127.365 175.200,127.607 175.200 C 127.849 175.200,127.937 175.022,127.803 174.805 C 127.663 174.578,127.823 174.511,128.179 174.647 C 128.521 174.778,128.800 174.698,128.800 174.470 C 128.800 174.241,129.128 173.950,129.529 173.822 C 129.931 173.695,130.606 173.273,131.029 172.885 C 131.453 172.497,132.913 171.328,134.273 170.287 C 135.633 169.246,137.099 167.946,137.531 167.397 C 137.962 166.849,138.514 166.400,138.758 166.400 C 139.001 166.400,139.200 166.130,139.200 165.800 C 139.200 165.470,139.460 165.200,139.777 165.200 C 140.095 165.200,140.674 164.660,141.064 164.000 C 141.454 163.340,141.924 162.800,142.110 162.800 C 142.295 162.800,142.333 162.616,142.194 162.390 C 142.055 162.165,142.093 162.030,142.279 162.090 C 142.656 162.213,146.399 158.600,146.402 158.111 C 146.403 157.940,146.943 157.225,147.602 156.522 C 148.261 155.819,148.800 155.054,148.800 154.822 C 148.800 154.590,148.980 154.400,149.200 154.400 C 149.420 154.400,149.600 154.207,149.600 153.971 C 149.600 153.736,149.871 153.272,150.203 152.940 C 150.819 152.324,156.000 143.716,156.000 143.309 C 156.000 143.185,156.630 141.774,157.400 140.173 C 158.170 138.572,158.800 136.989,158.800 136.655 C 158.800 136.321,158.980 135.936,159.200 135.800 C 159.420 135.664,159.600 135.113,159.600 134.576 C 159.600 134.039,159.780 133.600,160.000 133.600 C 160.220 133.600,160.400 133.060,160.400 132.400 C 160.400 131.740,160.542 131.200,160.715 131.200 C 160.888 131.200,161.074 130.622,161.128 129.916 C 161.182 129.209,161.375 128.534,161.558 128.416 C 161.934 128.171,162.359 126.290,162.667 123.500 C 162.783 122.455,163.024 121.600,163.203 121.600 C 164.487 121.600,164.437 92.164,163.151 91.370 C 162.958 91.251,162.800 90.364,162.800 89.400 C 162.800 88.436,162.620 87.536,162.400 87.400 C 162.180 87.264,162.000 86.634,162.000 86.000 C 162.000 85.366,161.820 84.736,161.600 84.600 C 161.380 84.464,161.200 83.834,161.200 83.200 C 161.200 82.566,161.020 81.936,160.800 81.800 C 160.580 81.664,160.400 81.113,160.400 80.576 C 160.400 80.039,160.220 79.600,160.000 79.600 C 159.780 79.600,159.600 79.238,159.600 78.795 C 159.600 78.352,159.433 77.677,159.229 77.295 C 158.913 76.703,158.425 75.511,158.208 74.800 C 158.100 74.446,155.599 69.021,155.258 68.400 C 153.144 64.553,152.675 63.747,152.363 63.420 C 152.163 63.211,152.000 62.941,152.000 62.820 C 151.999 62.462,156.166 62.841,156.580 63.237 C 156.789 63.437,157.813 63.600,158.856 63.600 C 159.899 63.600,160.864 63.780,161.000 64.000 C 161.136 64.220,162.371 64.400,163.744 64.400 C 165.117 64.400,166.411 64.564,166.620 64.765 C 166.829 64.965,167.990 65.231,169.200 65.356 C 170.410 65.480,172.320 65.691,173.444 65.826 C 176.099 66.143,175.988 66.688,175.995 53.362 C 176.001 40.857,176.100 41.200,172.469 41.200 C 171.331 41.200,170.400 41.020,170.400 40.800 C 170.400 40.578,169.333 40.400,168.000 40.400 C 166.667 40.400,165.600 40.222,165.600 40.000 C 165.600 39.780,164.621 39.600,163.424 39.600 C 162.227 39.600,161.136 39.420,161.000 39.200 C 160.864 38.980,159.784 38.800,158.600 38.800 C 157.416 38.800,156.336 38.620,156.200 38.400 C 156.064 38.180,155.074 38.000,154.000 38.000 C 152.926 38.000,151.936 37.820,151.800 37.600 C 151.664 37.380,150.789 37.200,149.856 37.200 C 148.923 37.200,147.989 37.037,147.780 36.839 C 147.571 36.640,146.590 36.378,145.600 36.257 C 142.203 35.842,140.599 35.550,139.800 35.202 C 139.006 34.857,137.658 34.587,134.622 34.164 C 133.754 34.043,132.730 33.777,132.348 33.572 C 131.966 33.367,131.249 33.200,130.755 33.200 C 130.261 33.200,129.304 33.032,128.628 32.827 C 126.822 32.279,124.487 31.694,122.000 31.168 C 120.790 30.912,119.440 30.565,119.000 30.399 C 117.934 29.994,109.215 27.950,108.200 27.866 C 107.760 27.830,107.310 27.683,107.200 27.539 C 107.090 27.396,106.440 27.191,105.755 27.083 C 105.070 26.975,104.170 26.721,103.755 26.517 C 103.340 26.314,102.730 26.170,102.400 26.198 C 102.070 26.226,101.587 26.091,101.328 25.899 C 101.068 25.706,100.258 25.536,99.528 25.521 C 98.797 25.507,98.020 25.356,97.800 25.187 C 96.726 24.360,72.191 23.585,71.392 24.352 M89.000 71.200 C 89.136 71.420,89.856 71.600,90.600 71.600 C 91.344 71.600,92.064 71.780,92.200 72.000 C 92.336 72.220,92.876 72.400,93.400 72.400 C 93.924 72.400,94.464 72.580,94.600 72.800 C 94.736 73.020,95.197 73.200,95.624 73.200 C 96.051 73.200,96.400 73.380,96.400 73.600 C 96.400 73.820,96.760 74.000,97.200 74.000 C 97.640 74.000,98.000 74.180,98.000 74.400 C 98.000 74.620,98.360 74.800,98.800 74.800 C 99.240 74.800,99.600 74.980,99.600 75.200 C 99.600 75.420,99.825 75.602,100.100 75.604 C 102.280 75.623,112.800 86.199,112.800 88.372 C 112.800 88.607,112.980 88.800,113.200 88.800 C 113.420 88.800,113.600 89.160,113.600 89.600 C 113.600 90.040,113.780 90.400,114.000 90.400 C 114.220 90.400,114.400 90.760,114.400 91.200 C 114.400 91.640,114.580 92.000,114.800 92.000 C 115.020 92.000,115.200 92.349,115.200 92.776 C 115.200 93.203,115.380 93.664,115.600 93.800 C 115.820 93.936,116.000 94.476,116.000 95.000 C 116.000 95.524,116.161 96.052,116.358 96.174 C 117.884 97.117,117.890 113.189,116.365 116.095 C 116.164 116.477,116.000 117.064,116.000 117.400 C 116.000 117.736,115.840 118.323,115.644 118.705 C 115.448 119.087,114.869 120.300,114.358 121.400 C 110.440 129.828,98.943 140.000,93.335 140.000 C 92.847 140.000,92.336 140.180,92.200 140.400 C 92.064 140.620,91.434 140.800,90.800 140.800 C 90.166 140.800,89.536 140.980,89.400 141.200 C 89.251 141.442,86.404 141.600,82.200 141.600 C 77.996 141.600,75.149 141.442,75.000 141.200 C 74.864 140.980,74.144 140.800,73.400 140.800 C 72.656 140.800,71.936 140.620,71.800 140.400 C 71.664 140.180,71.153 140.000,70.665 140.000 C 68.871 140.000,61.688 136.070,59.359 133.815 C 58.896 133.367,58.086 132.621,57.559 132.158 C 55.230 130.111,51.200 124.980,51.200 124.061 C 51.200 123.844,51.065 123.607,50.900 123.533 C 50.426 123.323,48.907 120.027,48.071 117.398 C 43.971 104.497,47.406 90.241,56.792 81.200 C 60.041 78.070,62.092 76.400,62.686 76.400 C 62.969 76.400,63.200 76.220,63.200 76.000 C 63.200 75.780,63.470 75.600,63.800 75.600 C 64.130 75.600,64.400 75.420,64.400 75.200 C 64.400 74.980,64.760 74.800,65.200 74.800 C 65.640 74.800,66.000 74.620,66.000 74.400 C 66.000 74.180,66.360 74.000,66.800 74.000 C 67.240 74.000,67.600 73.820,67.600 73.600 C 67.600 73.380,68.039 73.200,68.576 73.200 C 69.113 73.200,69.664 73.020,69.800 72.800 C 69.936 72.580,70.476 72.400,71.000 72.400 C 71.524 72.400,72.064 72.220,72.200 72.000 C 72.336 71.780,72.966 71.600,73.600 71.600 C 74.234 71.600,74.864 71.420,75.000 71.200 C 75.149 70.959,77.930 70.800,82.000 70.800 C 86.070 70.800,88.851 70.959,89.000 71.200 M246.000 118.000 L 246.000 129.600 257.800 129.600 L 269.600 129.600 269.600 118.000 L 269.600 106.400 257.800 106.400 L 246.000 106.400 246.000 118.000 M176.000 211.402 L 176.000 234.800 205.400 234.800 L 234.800 234.800 234.800 282.000 L 234.800 329.200 205.400 329.200 L 176.000 329.200 176.000 352.600 L 176.000 376.000 240.501 376.000 L 305.001 376.000 304.999 282.100 L 304.996 188.200 240.498 188.102 L 176.000 188.003 176.000 211.402 M399.100 204.276 C 398.715 204.376,398.400 204.625,398.400 204.829 C 398.400 205.033,397.950 205.200,397.400 205.200 C 396.850 205.200,396.400 205.346,396.400 205.525 C 396.400 205.704,395.770 206.098,395.000 206.400 C 394.230 206.702,393.600 207.096,393.600 207.275 C 393.600 207.454,393.240 207.600,392.800 207.600 C 392.360 207.600,392.000 207.780,392.000 208.000 C 392.000 208.220,391.640 208.400,391.200 208.400 C 390.760 208.400,390.400 208.599,390.400 208.843 C 390.400 209.086,390.123 209.179,389.785 209.050 C 389.435 208.915,389.072 209.069,388.942 209.407 C 388.817 209.733,388.396 210.000,388.006 210.000 C 387.617 210.000,387.076 210.268,386.804 210.596 C 386.532 210.923,386.171 211.106,386.002 211.001 C 385.832 210.896,385.239 211.168,384.684 211.605 C 384.128 212.042,383.555 212.400,383.410 212.400 C 383.154 212.400,377.407 215.252,368.800 219.651 C 366.490 220.831,364.540 221.933,364.467 222.099 C 364.393 222.264,364.033 222.404,363.667 222.409 C 363.300 222.414,362.550 222.770,362.000 223.200 C 361.450 223.630,360.775 223.986,360.500 223.991 C 360.225 223.996,360.000 224.180,360.000 224.400 C 360.000 224.620,359.640 224.800,359.200 224.800 C 358.760 224.800,358.400 224.980,358.400 225.200 C 358.400 225.420,358.040 225.600,357.600 225.600 C 357.160 225.600,356.800 225.780,356.800 226.000 C 356.800 226.220,356.510 226.400,356.156 226.400 C 355.802 226.400,354.497 226.928,353.256 227.573 C 352.015 228.217,350.145 229.122,349.100 229.583 C 348.055 230.043,347.200 230.585,347.200 230.787 C 347.200 230.989,346.835 231.084,346.389 230.998 C 345.943 230.912,345.684 231.012,345.813 231.221 C 345.942 231.429,345.692 231.600,345.257 231.600 C 344.822 231.600,344.407 231.740,344.333 231.911 C 344.260 232.082,343.253 232.685,342.095 233.252 L 339.990 234.283 339.895 282.141 C 339.824 318.129,339.915 330.000,340.262 330.000 C 340.854 330.000,344.157 331.704,344.333 332.100 C 344.407 332.265,344.801 332.400,345.210 332.400 C 345.618 332.400,346.049 332.555,346.166 332.744 C 346.444 333.196,363.650 341.733,364.280 341.733 C 364.547 341.733,364.672 341.883,364.559 342.067 C 364.445 342.250,364.633 342.400,364.976 342.400 C 365.319 342.400,365.600 342.580,365.600 342.800 C 365.600 343.020,365.830 343.200,366.111 343.200 C 366.392 343.200,367.697 343.768,369.011 344.461 C 377.982 349.197,385.343 352.759,385.701 352.537 C 385.934 352.394,386.008 352.463,385.867 352.692 C 385.663 353.021,387.465 354.104,388.400 354.214 C 388.510 354.227,389.217 354.625,389.972 355.098 C 390.726 355.571,391.491 355.867,391.672 355.756 C 391.852 355.644,392.000 355.722,392.000 355.928 C 392.000 356.134,392.585 356.536,393.300 356.821 C 394.015 357.106,395.078 357.668,395.662 358.070 C 396.246 358.471,397.011 358.800,397.362 358.800 C 397.713 358.800,398.000 358.980,398.000 359.200 C 398.000 359.420,398.345 359.600,398.767 359.600 C 399.188 359.600,399.624 359.825,399.735 360.100 C 399.846 360.375,399.951 325.365,399.968 282.300 C 399.986 239.235,399.955 204.021,399.900 204.046 C 399.845 204.072,399.485 204.175,399.100 204.276 " stroke="none" fill="#444c54" fill-rule="evenodd"></path><path id="path3" d="M92.800 24.400 C 93.576 24.901,94.000 24.901,94.000 24.400 C 94.000 24.180,93.595 24.003,93.100 24.006 C 92.372 24.011,92.315 24.086,92.800 24.400 M54.400 27.945 C 54.400 28.134,54.850 28.203,55.400 28.098 C 55.950 27.993,56.400 27.838,56.400 27.753 C 56.400 27.669,55.950 27.600,55.400 27.600 C 54.850 27.600,54.400 27.755,54.400 27.945 M108.433 27.743 C 108.525 27.821,109.230 28.001,110.000 28.142 C 110.985 28.323,111.222 28.282,110.800 28.006 C 110.258 27.650,108.037 27.403,108.433 27.743 M52.000 28.745 C 52.000 28.934,52.450 29.003,53.000 28.898 C 53.550 28.793,54.000 28.638,54.000 28.553 C 54.000 28.469,53.550 28.400,53.000 28.400 C 52.450 28.400,52.000 28.555,52.000 28.745 M111.600 28.553 C 111.600 28.638,112.050 28.793,112.600 28.898 C 113.150 29.003,113.600 28.934,113.600 28.745 C 113.600 28.555,113.150 28.400,112.600 28.400 C 112.050 28.400,111.600 28.469,111.600 28.553 M128.800 32.800 C 129.576 33.301,130.000 33.301,130.000 32.800 C 130.000 32.580,129.595 32.403,129.100 32.406 C 128.372 32.411,128.315 32.486,128.800 32.800 M143.600 36.000 C 144.376 36.501,144.800 36.501,144.800 36.000 C 144.800 35.780,144.395 35.603,143.900 35.606 C 143.172 35.611,143.115 35.686,143.600 36.000 M30.629 41.029 C 30.205 41.338,29.936 41.669,30.030 41.763 C 30.124 41.857,30.548 41.681,30.971 41.371 C 31.395 41.062,31.664 40.731,31.570 40.637 C 31.476 40.543,31.052 40.719,30.629 41.029 M170.400 40.800 C 170.400 41.020,170.670 41.200,171.000 41.200 C 171.330 41.200,171.600 41.020,171.600 40.800 C 171.600 40.580,171.330 40.400,171.000 40.400 C 170.670 40.400,170.400 40.580,170.400 40.800 M175.998 41.559 C 175.907 54.695,175.995 66.068,176.190 66.384 C 176.332 66.613,177.787 66.800,179.424 66.800 C 181.141 66.800,182.400 66.969,182.400 67.200 C 182.400 67.433,183.733 67.600,185.600 67.600 C 187.467 67.600,188.800 67.767,188.800 68.000 C 188.800 68.233,190.133 68.400,192.000 68.400 C 193.867 68.400,195.200 68.567,195.200 68.800 C 195.200 69.041,196.867 69.200,199.400 69.200 C 201.933 69.200,203.600 69.359,203.600 69.600 C 203.600 69.820,203.960 70.000,204.400 70.000 C 205.520 70.000,205.420 70.252,203.600 72.000 C 202.720 72.846,202.000 73.743,202.000 73.994 C 202.000 74.246,201.460 74.906,200.800 75.461 C 200.140 76.017,199.600 76.685,199.600 76.947 C 199.600 77.209,199.240 77.683,198.800 78.000 C 198.360 78.317,198.000 78.857,198.000 79.200 C 198.000 79.543,197.640 80.083,197.200 80.400 C 196.760 80.717,196.400 81.297,196.400 81.688 C 196.400 82.080,196.220 82.400,196.000 82.400 C 195.780 82.400,195.600 82.760,195.600 83.200 C 195.600 83.640,195.420 84.000,195.200 84.000 C 194.980 84.000,194.800 84.360,194.800 84.800 C 194.800 85.240,194.643 85.600,194.450 85.600 C 194.258 85.600,193.996 86.118,193.870 86.752 C 193.743 87.385,193.405 88.155,193.120 88.461 C 192.834 88.768,192.543 89.285,192.473 89.610 C 192.403 89.934,192.088 90.723,191.773 91.361 C 191.458 92.000,191.200 92.855,191.200 93.261 C 191.200 93.668,191.020 94.000,190.800 94.000 C 190.580 94.000,190.400 94.540,190.400 95.200 C 190.400 95.860,190.220 96.400,190.000 96.400 C 189.780 96.400,189.600 97.120,189.600 98.000 C 189.600 98.880,189.420 99.600,189.200 99.600 C 188.980 99.600,188.800 100.320,188.800 101.200 C 188.800 102.080,188.620 102.800,188.400 102.800 C 188.180 102.800,188.000 103.700,188.000 104.800 C 188.000 105.900,187.820 106.800,187.600 106.800 C 187.343 106.800,187.200 110.800,187.200 118.000 C 187.200 125.200,187.343 129.200,187.600 129.200 C 187.820 129.200,188.000 130.100,188.000 131.200 C 188.000 132.300,188.180 133.200,188.400 133.200 C 188.620 133.200,188.800 133.920,188.800 134.800 C 188.800 135.680,188.980 136.400,189.200 136.400 C 189.420 136.400,189.600 137.120,189.600 138.000 C 189.600 138.880,189.780 139.600,190.000 139.600 C 190.220 139.600,190.400 140.050,190.400 140.600 C 190.400 141.150,190.580 141.600,190.800 141.600 C 191.020 141.600,191.200 142.018,191.200 142.529 C 191.200 143.039,191.543 144.163,191.963 145.026 C 192.383 145.889,192.642 146.731,192.540 146.898 C 192.437 147.064,192.531 147.200,192.749 147.200 C 192.968 147.200,193.259 147.605,193.397 148.100 C 193.816 149.605,194.981 151.991,195.300 151.995 C 195.465 151.998,195.600 152.360,195.600 152.800 C 195.600 153.240,195.780 153.600,196.000 153.600 C 196.220 153.600,196.400 153.945,196.400 154.367 C 196.400 154.788,196.545 155.193,196.723 155.267 C 196.901 155.340,197.655 156.300,198.398 157.400 C 199.142 158.500,200.076 159.691,200.475 160.047 C 200.874 160.403,201.200 160.909,201.200 161.173 C 201.200 161.436,202.100 162.529,203.200 163.600 C 204.300 164.671,205.200 165.740,205.200 165.974 C 205.200 166.208,205.380 166.400,205.600 166.400 C 205.820 166.400,206.005 166.625,206.011 166.900 C 206.017 167.175,206.850 168.120,207.863 169.000 C 208.876 169.880,210.536 171.382,211.552 172.339 C 212.568 173.295,213.923 174.349,214.562 174.681 C 215.202 175.013,216.091 175.626,216.538 176.043 C 216.985 176.459,217.504 176.800,217.692 176.800 C 217.880 176.800,218.420 177.160,218.892 177.600 C 219.364 178.040,219.987 178.400,220.275 178.400 C 220.564 178.400,220.800 178.580,220.800 178.800 C 220.800 179.020,221.160 179.200,221.600 179.200 C 222.040 179.200,222.400 179.380,222.400 179.600 C 222.400 179.820,222.678 180.000,223.017 180.000 C 223.356 180.000,224.020 180.360,224.492 180.800 C 224.964 181.240,225.587 181.600,225.875 181.600 C 226.164 181.600,226.400 181.780,226.400 182.000 C 226.400 182.220,226.850 182.400,227.400 182.400 C 227.950 182.400,228.400 182.580,228.400 182.800 C 228.400 183.020,228.760 183.200,229.200 183.200 C 229.640 183.200,230.000 183.380,230.000 183.600 C 230.000 183.820,230.349 184.000,230.776 184.000 C 231.203 184.000,231.664 184.180,231.800 184.400 C 231.936 184.620,232.487 184.800,233.024 184.800 C 233.561 184.800,234.000 184.980,234.000 185.200 C 234.000 185.420,234.540 185.600,235.200 185.600 C 235.860 185.600,236.400 185.780,236.400 186.000 C 236.400 186.220,237.120 186.400,238.000 186.400 C 238.880 186.400,239.600 186.580,239.600 186.800 C 239.600 187.020,240.194 187.200,240.920 187.200 C 241.646 187.200,242.446 187.406,242.698 187.658 C 243.352 188.312,272.243 188.317,272.897 187.663 C 273.152 187.408,273.954 187.200,274.680 187.200 C 275.406 187.200,276.000 187.020,276.000 186.800 C 276.000 186.580,276.720 186.400,277.600 186.400 C 278.480 186.400,279.200 186.220,279.200 186.000 C 279.200 185.780,279.740 185.600,280.400 185.600 C 281.060 185.600,281.600 185.420,281.600 185.200 C 281.600 184.980,282.039 184.800,282.576 184.800 C 283.113 184.800,283.664 184.620,283.800 184.400 C 283.936 184.180,284.397 184.000,284.824 184.000 C 285.251 184.000,285.600 183.820,285.600 183.600 C 285.600 183.380,285.960 183.200,286.400 183.200 C 286.840 183.200,287.200 183.020,287.200 182.800 C 287.200 182.580,287.650 182.400,288.200 182.400 C 288.750 182.400,289.200 182.220,289.200 182.000 C 289.200 181.780,289.478 181.600,289.818 181.600 C 290.158 181.600,290.890 181.147,291.444 180.592 C 291.998 180.038,292.620 179.689,292.826 179.816 C 293.032 179.943,293.200 179.857,293.200 179.624 C 293.200 179.391,293.560 179.200,294.000 179.200 C 294.440 179.200,294.800 179.020,294.800 178.800 C 294.800 178.580,295.036 178.400,295.325 178.400 C 295.613 178.400,296.236 178.040,296.708 177.600 C 297.180 177.160,297.720 176.800,297.908 176.800 C 298.096 176.800,298.615 176.459,299.062 176.043 C 299.509 175.626,300.398 175.013,301.038 174.681 C 301.677 174.349,303.045 173.295,304.078 172.339 C 305.111 171.382,306.769 169.880,307.764 169.000 C 308.758 168.120,309.578 167.175,309.586 166.900 C 309.594 166.625,309.780 166.400,310.000 166.400 C 310.220 166.400,310.400 166.208,310.400 165.974 C 310.400 165.740,311.300 164.671,312.400 163.600 C 313.500 162.529,314.400 161.452,314.400 161.208 C 314.400 160.964,314.805 160.344,315.300 159.832 C 316.619 158.467,317.330 157.524,317.968 156.294 C 318.280 155.692,318.685 155.200,318.868 155.200 C 319.050 155.200,319.200 154.840,319.200 154.400 C 319.200 153.960,319.380 153.600,319.600 153.600 C 319.820 153.600,320.000 153.240,320.000 152.800 C 320.000 152.360,320.144 152.000,320.320 152.000 C 320.718 152.000,322.400 148.594,322.400 147.789 C 322.400 147.465,322.580 147.200,322.800 147.200 C 323.020 147.200,323.200 146.840,323.200 146.400 C 323.200 145.960,323.340 145.600,323.511 145.600 C 323.855 145.600,325.200 141.362,325.200 140.280 C 325.200 139.906,325.380 139.600,325.600 139.600 C 325.820 139.600,326.000 138.880,326.000 138.000 C 326.000 137.120,326.180 136.400,326.400 136.400 C 326.620 136.400,326.800 135.680,326.800 134.800 C 326.800 133.920,326.980 133.200,327.200 133.200 C 327.420 133.200,327.600 132.300,327.600 131.200 C 327.600 130.100,327.770 129.200,327.979 129.200 C 328.207 129.200,328.369 124.761,328.387 118.000 C 328.407 110.626,328.277 106.800,328.008 106.800 C 327.784 106.800,327.600 105.900,327.600 104.800 C 327.600 103.700,327.420 102.800,327.200 102.800 C 326.980 102.800,326.800 102.080,326.800 101.200 C 326.800 100.320,326.620 99.600,326.400 99.600 C 326.180 99.600,326.000 98.880,326.000 98.000 C 326.000 97.120,325.820 96.400,325.600 96.400 C 325.380 96.400,325.201 95.995,325.202 95.500 C 325.204 94.430,323.929 90.657,323.500 90.467 C 323.335 90.393,323.200 89.988,323.200 89.567 C 323.200 89.145,323.020 88.800,322.800 88.800 C 322.580 88.800,322.400 88.510,322.400 88.156 C 322.400 87.435,319.976 82.674,319.503 82.467 C 319.337 82.393,319.200 82.071,319.200 81.750 C 319.200 81.429,318.840 80.780,318.400 80.308 C 317.960 79.836,317.600 79.213,317.600 78.925 C 317.600 78.636,317.420 78.400,317.200 78.400 C 316.980 78.400,316.800 78.210,316.800 77.978 C 316.800 77.746,316.261 76.981,315.602 76.278 C 314.943 75.575,314.403 74.853,314.402 74.674 C 314.401 74.495,313.500 73.471,312.400 72.400 C 311.300 71.329,310.392 70.215,310.382 69.926 C 310.372 69.637,309.375 68.500,308.166 67.400 C 306.957 66.300,304.961 64.455,303.730 63.300 C 302.499 62.145,301.329 61.200,301.128 61.200 C 300.928 61.200,300.314 60.750,299.764 60.200 C 298.875 59.312,298.222 58.997,297.891 59.300 C 297.830 59.355,297.347 58.995,296.815 58.500 C 296.284 58.005,295.613 57.600,295.325 57.600 C 295.036 57.600,294.800 57.420,294.800 57.200 C 294.800 56.980,294.440 56.800,294.000 56.800 C 293.560 56.800,293.200 56.620,293.200 56.400 C 293.200 56.180,292.880 56.000,292.488 56.000 C 292.097 56.000,291.517 55.640,291.200 55.200 C 290.883 54.760,290.303 54.400,289.912 54.400 C 289.520 54.400,289.200 54.220,289.200 54.000 C 289.200 53.780,288.750 53.600,288.200 53.600 C 287.650 53.600,287.200 53.420,287.200 53.200 C 287.200 52.980,286.840 52.800,286.400 52.800 C 285.960 52.800,285.600 52.620,285.600 52.400 C 285.600 52.180,285.251 52.000,284.824 52.000 C 284.397 52.000,283.936 51.820,283.800 51.600 C 283.664 51.380,283.113 51.200,282.576 51.200 C 282.039 51.200,281.600 51.020,281.600 50.800 C 281.600 50.580,281.060 50.400,280.400 50.400 C 279.740 50.400,279.200 50.220,279.200 50.000 C 279.200 49.780,278.480 49.600,277.600 49.600 C 276.720 49.600,276.000 49.420,276.000 49.200 C 276.000 48.980,275.381 48.800,274.624 48.800 C 273.867 48.800,273.136 48.620,273.000 48.400 C 272.864 48.180,271.964 48.000,271.000 48.000 C 270.036 48.000,269.136 47.820,269.000 47.600 C 268.847 47.353,265.396 47.200,259.976 47.200 C 254.392 47.200,251.200 47.055,251.200 46.800 C 251.200 46.541,246.541 46.400,238.024 46.400 C 229.671 46.400,224.757 46.254,224.600 46.000 C 224.454 45.763,221.996 45.600,218.576 45.600 C 214.992 45.600,212.800 45.448,212.800 45.200 C 212.800 44.958,211.075 44.800,208.424 44.800 C 205.937 44.800,203.940 44.627,203.800 44.400 C 203.662 44.177,201.796 44.000,199.576 44.000 C 197.389 44.000,195.600 43.858,195.600 43.684 C 195.600 43.511,194.168 43.346,192.417 43.319 C 190.667 43.291,189.002 43.121,188.717 42.940 C 188.433 42.760,187.120 42.571,185.800 42.520 C 184.480 42.469,182.680 42.260,181.800 42.055 C 179.710 41.568,176.000 41.250,175.998 41.559 M26.833 44.367 C 26.412 44.788,25.962 45.028,25.833 44.900 C 25.705 44.772,25.600 44.877,25.600 45.133 C 25.600 45.875,26.185 45.680,27.200 44.600 C 28.293 43.436,27.970 43.230,26.833 44.367 M22.491 48.280 C 21.112 49.730,20.061 50.995,20.157 51.091 C 20.380 51.314,25.200 46.388,25.200 45.937 C 25.200 45.434,25.195 45.438,22.491 48.280 M16.493 55.200 C 16.218 55.640,16.131 56.000,16.300 56.000 C 16.469 56.000,16.832 55.640,17.107 55.200 C 17.382 54.760,17.469 54.400,17.300 54.400 C 17.131 54.400,16.768 54.760,16.493 55.200 M12.900 60.204 C 11.965 61.628,11.200 62.974,11.200 63.196 C 11.200 63.418,11.056 63.600,10.880 63.600 C 10.704 63.600,10.166 64.410,9.685 65.400 C 8.627 67.577,8.859 67.800,9.996 65.700 C 10.975 63.892,11.307 63.365,13.516 60.121 C 14.460 58.734,15.090 57.604,14.916 57.608 C 14.742 57.613,13.835 58.781,12.900 60.204 M152.018 62.600 C 152.018 62.820,152.370 63.450,152.800 64.000 C 153.230 64.550,153.582 64.820,153.582 64.600 C 153.582 64.380,153.230 63.750,152.800 63.200 C 152.370 62.650,152.018 62.380,152.018 62.600 M165.400 64.800 C 165.536 65.020,165.917 65.200,166.247 65.200 C 166.577 65.200,166.736 65.020,166.600 64.800 C 166.464 64.580,166.083 64.400,165.753 64.400 C 165.423 64.400,165.264 64.580,165.400 64.800 M156.110 70.300 C 156.197 70.465,156.668 71.475,157.156 72.544 C 157.645 73.613,158.158 74.375,158.296 74.237 C 158.434 74.099,158.334 73.774,158.073 73.513 C 157.813 73.253,157.600 72.716,157.600 72.320 C 157.600 71.924,157.420 71.600,157.200 71.600 C 156.980 71.600,156.800 71.240,156.800 70.800 C 156.800 70.360,156.609 70.000,156.376 70.000 C 156.143 70.000,156.024 70.135,156.110 70.300 M163.628 95.076 C 163.718 96.115,164.344 96.996,164.372 96.124 C 164.387 95.642,164.220 95.136,164.000 95.000 C 163.780 94.864,163.613 94.898,163.628 95.076 M269.600 118.000 L 269.600 129.600 257.800 129.600 L 246.000 129.600 246.000 118.000 L 246.000 106.400 257.800 106.400 L 269.600 106.400 269.600 118.000 M157.156 140.656 C 156.668 141.725,156.197 142.735,156.110 142.900 C 156.024 143.065,156.143 143.200,156.376 143.200 C 156.609 143.200,156.800 142.935,156.800 142.612 C 156.800 142.289,157.169 141.368,157.620 140.565 C 158.070 139.763,158.351 139.017,158.242 138.909 C 158.134 138.801,157.645 139.587,157.156 140.656 M154.050 146.797 C 153.538 147.708,153.197 148.530,153.292 148.626 C 153.388 148.721,153.720 148.304,154.032 147.699 C 154.344 147.095,154.756 146.486,154.948 146.346 C 155.140 146.207,155.226 145.878,155.139 145.617 C 155.052 145.355,154.562 145.886,154.050 146.797 M11.202 149.317 C 11.201 149.711,11.586 150.431,12.059 150.917 C 12.531 151.403,12.790 151.574,12.635 151.299 C 12.479 151.023,12.093 150.303,11.778 149.699 C 11.368 148.912,11.204 148.804,11.202 149.317 M14.422 154.200 C 14.427 154.729,15.542 156.191,15.769 155.965 C 15.866 155.868,15.602 155.341,15.182 154.794 C 14.761 154.247,14.420 153.980,14.422 154.200 M16.800 157.600 C 17.270 158.260,17.742 158.800,17.850 158.800 C 17.957 158.800,17.726 158.260,17.336 157.600 C 16.946 156.940,16.474 156.400,16.287 156.400 C 16.099 156.400,16.330 156.940,16.800 157.600 M147.064 157.129 C 146.699 157.533,146.400 158.018,146.400 158.207 C 146.400 158.396,146.778 158.145,147.240 157.649 C 147.702 157.153,148.001 156.668,147.904 156.571 C 147.808 156.474,147.430 156.725,147.064 157.129 M20.000 161.413 C 20.000 161.738,22.833 164.501,22.997 164.336 C 23.076 164.257,22.542 163.519,21.810 162.696 C 20.571 161.303,20.000 160.899,20.000 161.413 M142.200 162.691 C 141.540 163.480,140.010 165.086,138.800 166.260 C 137.590 167.434,136.780 168.395,137.000 168.394 C 137.403 168.394,144.000 161.818,144.000 161.416 C 144.000 160.879,143.304 161.372,142.200 162.691 M25.023 166.601 C 26.072 167.592,27.014 168.319,27.116 168.217 C 27.342 167.991,23.942 164.826,23.458 164.811 C 23.270 164.805,23.974 165.611,25.023 166.601 M27.600 168.584 C 27.600 168.965,29.225 170.495,30.800 171.598 C 31.570 172.137,32.549 172.898,32.975 173.289 C 33.402 173.680,34.018 174.000,34.344 174.000 C 34.670 174.000,34.121 173.459,33.123 172.798 C 32.125 172.138,30.474 170.862,29.455 169.964 C 28.435 169.067,27.600 168.445,27.600 168.584 M133.246 171.021 C 131.478 172.410,131.338 172.782,132.896 171.949 C 133.879 171.422,135.785 169.590,135.318 169.621 C 135.143 169.632,134.211 170.262,133.246 171.021 M129.800 173.835 L 128.600 174.866 130.000 173.963 C 131.796 172.804,131.801 172.800,131.367 172.802 C 131.165 172.803,130.460 173.268,129.800 173.835 M103.800 186.000 C 103.029 186.331,103.031 186.345,103.876 186.372 C 104.358 186.387,104.864 186.220,105.000 186.000 C 105.292 185.527,104.901 185.527,103.800 186.000 M65.800 187.600 C 65.936 187.820,66.442 187.987,66.924 187.972 C 67.769 187.945,67.771 187.931,67.000 187.600 C 65.899 187.127,65.508 187.127,65.800 187.600 M97.000 187.600 L 96.200 187.944 97.000 187.966 C 97.440 187.978,98.070 187.813,98.400 187.600 C 99.195 187.086,98.196 187.086,97.000 187.600 M386.493 210.180 C 385.198 210.895,384.991 211.180,385.947 210.930 C 386.402 210.811,386.982 210.463,387.236 210.157 C 387.775 209.507,387.707 209.509,386.493 210.180 M384.000 211.600 C 384.000 211.820,383.741 212.000,383.424 212.000 C 383.107 212.000,382.746 212.163,382.623 212.363 C 382.272 212.930,383.919 212.380,384.436 211.757 C 384.771 211.353,384.775 211.200,384.449 211.200 C 384.202 211.200,384.000 211.380,384.000 211.600 M356.600 225.482 C 355.768 225.932,355.578 226.191,355.980 226.326 C 356.299 226.433,356.629 226.313,356.713 226.060 C 356.798 225.807,357.212 225.600,357.633 225.600 C 358.055 225.600,358.400 225.420,358.400 225.200 C 358.400 224.656,358.013 224.717,356.600 225.482 M351.200 228.230 C 350.210 228.777,349.838 229.107,350.372 228.962 C 351.461 228.669,354.024 227.194,353.400 227.220 C 353.180 227.229,352.190 227.684,351.200 228.230 M304.800 281.996 L 304.800 329.200 322.402 329.200 L 340.003 329.200 339.902 282.100 L 339.800 235.000 322.300 234.896 L 304.800 234.792 304.800 281.996 M354.400 337.364 C 354.400 337.635,358.527 339.606,358.710 339.423 C 358.803 339.330,357.968 338.792,356.853 338.227 C 354.836 337.205,354.400 337.051,354.400 337.364 M359.200 339.792 C 359.200 340.110,362.462 341.671,362.678 341.456 C 362.788 341.346,362.147 340.883,361.255 340.428 C 359.589 339.578,359.200 339.458,359.200 339.792 M388.400 354.584 C 388.400 354.854,396.119 358.814,396.298 358.636 C 396.392 358.542,396.048 358.235,395.534 357.955 C 393.526 356.859,388.400 354.437,388.400 354.584 " stroke="none" fill="#343c3c" fill-rule="evenodd"></path><path id="path4" d="M75.000 71.200 C 74.864 71.420,74.234 71.600,73.600 71.600 C 72.966 71.600,72.336 71.780,72.200 72.000 C 72.064 72.220,71.524 72.400,71.000 72.400 C 70.476 72.400,69.936 72.580,69.800 72.800 C 69.664 73.020,69.113 73.200,68.576 73.200 C 68.039 73.200,67.600 73.380,67.600 73.600 C 67.600 73.820,67.240 74.000,66.800 74.000 C 66.360 74.000,66.000 74.180,66.000 74.400 C 66.000 74.620,65.640 74.800,65.200 74.800 C 64.760 74.800,64.400 74.980,64.400 75.200 C 64.400 75.420,64.130 75.600,63.800 75.600 C 63.470 75.600,63.200 75.780,63.200 76.000 C 63.200 76.220,62.969 76.400,62.686 76.400 C 62.092 76.400,60.041 78.070,56.792 81.200 C 47.406 90.241,43.971 104.497,48.071 117.398 C 48.907 120.027,50.426 123.323,50.900 123.533 C 51.065 123.607,51.200 123.844,51.200 124.061 C 51.200 124.980,55.230 130.111,57.559 132.158 C 58.086 132.621,58.896 133.367,59.359 133.815 C 61.688 136.070,68.871 140.000,70.665 140.000 C 71.153 140.000,71.664 140.180,71.800 140.400 C 71.936 140.620,72.622 140.785,73.324 140.767 C 74.353 140.741,74.057 140.560,71.800 139.831 C 65.918 137.933,60.642 134.669,56.786 130.541 C 47.325 120.413,44.343 106.013,49.179 93.806 C 54.422 80.571,66.470 71.948,80.600 71.317 C 84.776 71.130,85.977 71.266,92.200 72.633 C 103.512 75.117,114.054 87.103,116.621 100.400 C 117.590 105.420,117.414 108.679,115.766 116.200 C 113.902 124.711,104.475 135.146,95.452 138.686 C 93.846 139.316,92.933 139.853,93.336 139.931 C 94.269 140.111,99.310 137.698,102.433 135.577 C 107.137 132.383,111.866 126.761,114.358 121.400 C 114.869 120.300,115.448 119.087,115.644 118.705 C 115.840 118.323,116.000 117.736,116.000 117.400 C 116.000 117.064,116.164 116.477,116.365 116.095 C 117.890 113.189,117.884 97.117,116.358 96.174 C 116.161 96.052,116.000 95.524,116.000 95.000 C 116.000 94.476,115.820 93.936,115.600 93.800 C 115.380 93.664,115.200 93.203,115.200 92.776 C 115.200 92.349,115.020 92.000,114.800 92.000 C 114.580 92.000,114.400 91.640,114.400 91.200 C 114.400 90.760,114.220 90.400,114.000 90.400 C 113.780 90.400,113.600 90.040,113.600 89.600 C 113.600 89.160,113.420 88.800,113.200 88.800 C 112.980 88.800,112.800 88.607,112.800 88.372 C 112.800 86.199,102.280 75.623,100.100 75.604 C 99.825 75.602,99.600 75.420,99.600 75.200 C 99.600 74.980,99.240 74.800,98.800 74.800 C 98.360 74.800,98.000 74.620,98.000 74.400 C 98.000 74.180,97.640 74.000,97.200 74.000 C 96.760 74.000,96.400 73.820,96.400 73.600 C 96.400 73.380,96.051 73.200,95.624 73.200 C 95.197 73.200,94.736 73.020,94.600 72.800 C 94.464 72.580,93.924 72.400,93.400 72.400 C 92.876 72.400,92.336 72.220,92.200 72.000 C 92.064 71.780,91.344 71.600,90.600 71.600 C 89.856 71.600,89.136 71.420,89.000 71.200 C 88.851 70.959,86.070 70.800,82.000 70.800 C 77.930 70.800,75.149 70.959,75.000 71.200 M90.000 140.427 C 89.450 140.627,87.740 140.950,86.200 141.145 L 83.400 141.499 86.276 141.549 C 87.858 141.577,89.264 141.420,89.400 141.200 C 89.536 140.980,90.166 140.800,90.800 140.800 C 91.434 140.800,92.064 140.620,92.200 140.400 C 92.499 139.915,91.368 139.929,90.000 140.427 M74.977 141.163 C 75.128 141.408,76.411 141.600,77.890 141.600 C 81.187 141.600,81.027 141.385,77.454 141.012 C 75.506 140.810,74.786 140.853,74.977 141.163 M77.921 188.299 C 80.188 188.370,83.788 188.370,85.921 188.298 C 88.055 188.226,86.200 188.168,81.800 188.168 C 77.400 188.168,75.655 188.227,77.921 188.299 " stroke="none" fill="#4c5055" fill-rule="evenodd"></path></g></svg>